<svg id="vector" xmlns="http://www.w3.org/2000/svg" width="272.3047d" height="130.47d" viewBox="0 0 272.31 130.47"><defs><clipPath id="clip_path_0"><path d="m115.03,67.56s5.95,-6.29 8.74,-6.34c2.17,-0.04 7.24,0.16 8.41,3.03 1.17,2.87 -2.37,4.42 -6.87,5.34 -4.5,0.92 -7.58,0.22 -8.67,-0.37 -1.09,-0.59 -1.61,-1.67 -1.61,-1.67Z"/></clipPath><clipPath id="clip_path_1"><path d="m217.55,19.42C192.77,11.43 143.27,0.37 111.59,9.54c-32.31,9.35 -64.25,40.59 -64.25,40.59 0,0 -18.91,9.76 -28.27,17.28 -10.03,8.05 -9.91,23.7 -7.63,32.22 1.77,6.59 46.65,16.9 56.92,16.82 2.95,0.61 7.48,0.59 11.89,0.54l2.04,-0.54c-0.29,-4.61 -0.1,-9.01 0.89,-13.99 2.28,-11.45 11.87,-19.13 19.79,-17.83 7.54,1.24 12.67,9.52 10.17,25.83l11.4,-5.35c18.81,-6.3 39.19,-11.87 61.59,-16.5l8.34,-0.99c0,-5.09 0.36,-9.57 1.75,-15.18 2.81,-11.31 12.27,-18.26 19.97,-16.2 7.26,1.94 10.84,10.07 9.6,19.77 3.25,-1.67 5.08,-3.63 6.09,-6.59 1.82,-5.32 2.22,-12.04 1.95,-14.76 -0.13,-1.33 -0.4,-2.72 -0.78,-4.14 -2.32,-8.63 -15.73,-29.92 -15.49,-31.1Z"/></clipPath></defs><path fill="#1d1d1dff" d="m222.24,63.39c-8.18,-2.19 -21.56,-2.19 -29.74,0L22.2,105.34c-8.18,2.19 -1.72,8.01 6.46,10.2l47.71,13.86c8.18,2.19 24.85,0.64 33.13,-1.12 75.73,-10.72 150.16,-36.33 158.61,-43.45 8.57,-7.23 2.63,-8.63 -5.54,-10.82l-40.33,-10.62Z" stroke-opacity="0.04" fill-opacity="0.04" id="path_0"/><path fill="#1d1d1dff" d="m201.01,69.31c-8.18,-2.19 -21.56,-2.19 -29.74,0L22.2,105.34c-8.18,2.19 2.67,6.78 10.85,8.98l36.13,9.67c8.18,2.19 16.89,2.7 21.64,2.38 4.75,-0.32 10.65,-1.32 21.56,-5.1 16.86,-5.85 46.54,-14.27 58.6,-17.68 13.99,-3.96 25.44,-5.13 37.22,-8.18 19.09,-4.95 27.72,-8.83 30.34,-10.6 2.62,-1.77 3.61,-4.45 -4.56,-6.65l-32.96,-8.83Z" stroke-opacity="0.23" fill-opacity="0.23" id="path_1"/><path fill="#e9e9eaff" d="m56.3,42.93l-7.18,5.6s0.74,-4.08 2.2,-5.6c2.21,-2.3 4.98,0 4.98,0Z" id="path_2"/><path fill="#1d1d1dff" d="m187.44,70.2c-2.65,9.9 1.07,19.49 8.31,21.43 7.24,1.94 15.27,-4.51 17.92,-14.4 2.65,-9.9 -1.07,-19.49 -8.31,-21.43 -7.24,-1.94 -15.26,4.51 -17.92,14.4Z" id="path_3"/><path fill="#1d1d1dff" d="M206.45,94.5l-10.69,-2.87l9.6,-35.84l10.69,2.87z" id="path_4"/><path fill="#1d1d1dff" d="m74.98,100.39c-2.65,9.9 1.07,19.49 8.31,21.43 7.24,1.94 15.27,-4.51 17.92,-14.4 2.65,-9.9 -1.07,-19.49 -8.31,-21.43 -7.24,-1.94 -15.26,4.51 -17.92,14.4Z" id="path_5"/><path fill="#1d1d1dff" d="M93.99,124.69l-10.69,-2.87l9.6,-35.84l10.69,2.87z" id="path_6"/><path fill="#1d1d1dff" d="M225.78,76.02l-18.82,-5.95l-81.52,24.85l-12.31,15.54l-26.7,-4.34l2.63,-22.67l124.27,-34.26l18.8,12.48l-6.35,14.35z" id="path_7"/><path fill="#e9e9eaff" d="m217.55,19.42C192.77,11.43 143.27,0.37 111.59,9.54c-32.31,9.35 -64.25,40.59 -64.25,40.59 0,0 -18.91,9.76 -28.27,17.28 -10.03,8.05 -9.91,23.7 -7.63,32.22 1.77,6.59 46.65,16.9 56.92,16.82 2.95,0.61 7.48,0.59 11.89,0.54l2.04,-0.54c-0.29,-4.61 -0.1,-9.01 0.89,-13.99 2.28,-11.45 11.87,-19.13 19.79,-17.83 7.54,1.24 12.67,9.52 10.17,25.83l11.4,-5.35c18.81,-6.3 39.19,-11.87 61.59,-16.5l8.34,-0.99c0,-5.09 0.36,-9.57 1.75,-15.18 2.81,-11.31 12.27,-18.26 19.97,-16.2 7.26,1.94 10.84,10.07 9.6,19.77 3.25,-1.67 5.08,-3.63 6.09,-6.59 1.82,-5.32 2.95,-12.89 2.68,-15.61 -0.17,-1.77 -0.49,-3.56 -1.77,-4.19 -2.78,-8.05 -8.01,-21.34 -15.24,-30.2Z" id="path_8"/><path fill="#404041ff" d="m159.33,23.72c17.93,-5.92 31.17,-7.02 55.72,-4.71l2.49,0.41C192.73,11.43 143.22,0.38 111.59,9.54c-8.13,2.35 -16.23,6.09 -23.81,10.37 -0.41,0.26 -0.82,0.53 -1.23,0.8 -6.91,4.03 -13.16,8.17 -18.9,12.41 -4.85,3.61 -9.05,7.04 -12.36,9.86 -2.67,2.29 -5.24,4.61 -7.73,6.94 -0.14,0.14 -0.22,0.21 -0.22,0.21 5.17,8.57 24.23,15.35 60.44,16.19 0,0 19.62,-32.05 51.56,-42.6Z" id="path_9"/><path fill="#404041ff" d="m113.13,68.07c32.1,-9.66 64.3,-18.91 93.23,-30.89 0.76,-0.31 1.44,-0.56 1.97,-0.9 1.81,-1.18 7.39,-12.96 7.39,-12.96 -13.81,-2.97 -37.36,-3.15 -51.92,2.01 -36.32,12.89 -50.67,42.74 -50.67,42.74Z" id="path_10"/><path fill="#e9e9eaff" d="m87.48,20.31l-5.21,3.01c9.9,5.85 29.2,10.33 52.02,14.17 1.31,-0.98 2.87,-1.99 4.68,-3.15 -21.11,-4.08 -39.2,-8.61 -51.49,-14.03Z" id="path_11"/><path fill="#58595bff" d="m50.24,50.34c6.72,7.86 26.85,12.16 55.89,14.08 0,0 3.17,-8 -19.59,-13.2 -24.27,-5.55 -36.3,-0.88 -36.3,-0.88Z" id="path_12"/><path fill="#00000000" d="m164.16,25.28c1.08,8.42 2.9,26.24 2.9,26.24 0,0 2.6,3.26 2.08,8.15 -0.84,7.93 -1.91,22.13 -1.18,27.55" stroke="#bababaff" stroke-width="0.5" stroke-opacity="0.56" fill-opacity="0.56" id="path_13"/><path fill="#00000000" d="m113.23,67.98c3.67,3.91 4.37,18.71 6.74,32.15l64.05,-17.25c2.71,-0.72 5.22,-3.11 6.67,-6.31l13.68,-26.77c1.53,-3.37 1.7,-8.09 -0.55,-11.59l-4.65,-16.63" stroke="#bababaff" stroke-width="0.5" stroke-opacity="0.56" fill-opacity="0.56" id="path_14"/><path fill="#00000000" d="m107.65,66.28s-0.27,1.58 -2.66,2.89c-2.66,1.45 -25.79,11.13 -31.59,13.84 -7.27,3.4 -17,5.74 -23.4,4.81 -9.95,-1.45 -24.81,-5.28 -28.33,-7.04 -3.84,-1.92 -6.65,-6.56 -6.12,-8.81" stroke="#bababaff" stroke-width="0.5" stroke-opacity="0.56" fill-opacity="0.56" id="path_15"/><path fill="#00000000" d="m232.53,49.56s-4.89,3.22 -5.77,4.04c-2.39,2.22 -5.37,5.64 -5.37,5.64" stroke="#a8a8a8ff" stroke-width="0.5" stroke-opacity="0.56" fill-opacity="0.56" id="path_16"/><path fill="#00000000" d="m78.56,80.71s8.81,2.47 10.96,9.42" stroke="#bababaff" stroke-width="0.5" stroke-opacity="0.56" fill-opacity="0.56" id="path_17"/><path fill="#000000ff" d="m59.68,115.52c1.91,-0.21 -8.05,-14.1 -8.97,-15.11 -2.2,-2.4 -8.98,-4.79 -20.75,-7.58 -10.11,-2.39 -12.23,-1.36 -13.3,-0.4 -0.7,0.63 -5.28,7.85 -4.03,8.82 2.9,2.25 9.59,5.16 19.27,7.95 10.47,3.02 25.57,6.56 27.78,6.33Z" stroke-opacity="0.57" fill-opacity="0.57" id="path_18"/><path fill="#000000ff" d="m53.21,112.99c1.55,0.29 -6.03,-3.67 -6.74,-3.99 -1.7,-0.77 -7.1,-2.31 -16.52,-4.77 -8.09,-2.11 -9.85,-2.3 -10.75,-2.33 -0.59,-0.02 -3.86,-0.23 -2.98,0.34 1.85,1.21 6.17,3.11 13.9,5.21 8.37,2.27 21.29,5.2 23.09,5.54Z" stroke-opacity="0.1" fill-opacity="0.1" id="path_19"/><path fill="#4f4f4fff" d="m226.49,40.32c1.6,3.29 2.83,6.72 3.87,10.7l2.43,-1.39c-1.31,-5.49 -1.97,-8.32 -3.15,-9.08 -0.98,-0.63 -3.15,-0.22 -3.15,-0.22Z" id="path_20"/><path fill="#58595bff" d="M89.78,33.29l12.67,3.4l4.81,-4.4l-12.67,-3.39l-4.81,4.39z" id="path_21"/><path fill="#1d1d1dff" d="M158.14,61.04l8.68,-3.18l-0.33,2.08l-8.82,3.3l0.47,-2.2z" id="path_22"/><path fill="#1d1d1dff" d="M194.68,48.71l8.58,-3.45l-0.26,2.09l-8.72,3.57l0.4,-2.21z" id="path_23"/><path fill="#ffffffff" d="m116.2,67.06c48.1,-35.42 96.06,-39.25 96.06,-39.25l1.63,-3.56c-15.44,-1.97 -31.87,-3.68 -49.08,2.38 -35.47,12.48 -48.62,40.44 -48.62,40.44Z" stroke-opacity="0.1" fill-opacity="0.1" id="path_24"/><path fill="#000000ff" d="m115.03,68.58s0.19,-0.46 2.22,0.86c2.21,1.44 10.25,2.99 12.29,2.2 2.86,-1.11 3.09,-4 2.04,-5.07 -3.26,-3.33 -5.77,-3.26 -7,-3.18 -1.23,0.07 -9.56,5.2 -9.56,5.2Z" stroke-opacity="0.02" fill-opacity="0.02" id="path_25"/><path fill="#e9e9eaff" d="m115.03,67.56s5.95,-6.29 8.74,-6.34c2.17,-0.04 7.24,0.16 8.41,3.03 1.17,2.87 -2.37,4.42 -6.87,5.34 -4.5,0.92 -7.58,0.22 -8.67,-0.37 -1.09,-0.59 -1.61,-1.67 -1.61,-1.67Z" id="path_26"/><g id="g_0"><path fill="#000000ff" d="m129.57,61.46s0.39,3.12 -4.65,4.33c-2.62,0.63 -10.92,1.9 -10.92,1.9l2.02,3.66 16.68,0.32 2.16,-7.18 -3.05,-4.12 -2.24,1.09Z" stroke="#6d6e70ff" stroke-width="0.25" stroke-opacity="0.1" fill-opacity="0.1" clip-path="url(#clip_path_0)"/></g><path fill="#00000000" d="m115.03,67.56s5.95,-6.29 8.74,-6.34c2.17,-0.04 7.24,0.16 8.41,3.03 1.17,2.87 -2.37,4.42 -6.87,5.34 -4.5,0.92 -7.58,0.22 -8.67,-0.37 -1.09,-0.59 -1.61,-1.67 -1.61,-1.67Z" stroke="#6d6e70ff" stroke-width="0.25" id="path_27"/><path fill="#7f7f7fff" d="m15.19,71.6c-0.87,1.84 1.51,7.03 5.39,8.86 5.65,2.66 19.56,5.96 29.59,7.58 7.29,1.18 22.67,-3.39 28.73,-7.34 -0.98,-0.88 -3.99,-0.88 -6.38,-0.18 -4.86,1.67 -15.35,4.68 -21.48,3.79 -10.57,-1.53 -24.2,-4.72 -28.86,-6.85 -2.36,-1.08 -5.77,-5.71 -4.37,-8.97 -0.86,0.67 -2.15,2.11 -2.62,3.1Z" id="path_28"/><g id="g_1"><path fill="#ffffffff" d="m9.85,93.64c-0.88,-26.57 30.83,-33.49 51.54,-33.9C75.41,44.78 110.4,1.69 160.13,6.59l25.52,-3.4 -28.47,-3.19 -58.7,8.28L0,77.63l9.85,16.01Z" stroke-opacity="0.1" fill-opacity="0.1" clip-path="url(#clip_path_1)"/></g><path fill="#6d6d6dff" d="m85.39,103.21c-2.65,9.88 1.07,19.46 8.3,21.4 7.23,1.94 15.24,-4.5 17.89,-14.38 2.65,-9.88 -1.07,-19.46 -8.3,-21.4 -7.23,-1.94 -15.24,4.5 -17.89,14.38Z" id="path_29"/><path fill="#e9e9eaff" d="m88.7,104.1c-1.98,7.38 0.8,14.53 6.2,15.98 5.4,1.45 11.38,-3.36 13.36,-10.74 1.98,-7.38 -0.8,-14.53 -6.2,-15.98 -5.4,-1.45 -11.38,3.36 -13.36,10.74Z" id="path_30"/><path fill="#646568ff" d="M206.2,94.37a18.52,13.56 105,1 0,9.59 -35.78a18.52,13.56 105,1 0,-9.59 35.78z" id="path_31"/><path fill="#e9e9eaff" d="m201.22,73.86c-1.98,7.38 0.8,14.53 6.2,15.98 5.4,1.45 11.38,-3.36 13.36,-10.74 1.98,-7.38 -0.8,-14.53 -6.2,-15.98 -5.4,-1.45 -11.38,3.36 -13.36,10.74Z" id="path_32"/></svg>