<svg id="vector" xmlns="http://www.w3.org/2000/svg" width="24.0d" height="24.0d" viewBox="0 0 24.0 24.0"><path fill="#000000ff" d="M6,4.687C6.371,4.261 6.916,4 7.509,4H16.491C17.084,4 17.629,4.261 18,4.687C18.101,4.803 18.189,4.931 18.262,5.069C18.325,5.189 18.376,5.316 18.414,5.451L19.272,8.451C19.472,9.151 20.008,10.125 20.493,10.67C20.809,11.023 21,11.489 21,12V15C21,16.104 20.105,17 19,17H5C3.895,17 3,16.104 3,15V12C3,11.489 3.192,11.023 3.507,10.67C3.992,10.125 4.528,9.151 4.728,8.451L5.586,5.451C5.668,5.162 5.812,4.903 6,4.687ZM7.509,5.5H16.491C16.715,5.5 16.911,5.648 16.972,5.863L17.829,8.863C17.921,9.182 17.681,9.5 17.348,9.5H6.651C6.319,9.5 6.079,9.182 6.171,8.863L7.028,5.863C7.089,5.648 7.285,5.5 7.509,5.5ZM5.5,12.25C5.5,11.56 6.06,11 6.75,11C7.44,11 8,11.56 8,12.25C8,12.94 7.44,13.5 6.75,13.5C6.06,13.5 5.5,12.94 5.5,12.25ZM17.25,11C17.94,11 18.5,11.56 18.5,12.25C18.5,12.94 17.94,13.5 17.25,13.5C16.56,13.5 16,12.94 16,12.25C16,11.56 16.56,11 17.25,11Z" fill-rule="evenodd" id="path_0"/><path fill="#000000ff" d="M20.281,9H21C21.552,9 22,8.552 22,8C22,7.448 21.552,7 21,7H19.781L20.281,9Z" id="path_1"/><path fill="#000000ff" d="M3,9H3.719L4.219,7H3C2.448,7 2,7.448 2,8C2,8.552 2.448,9 3,9Z" id="path_2"/><path fill="#000000ff" d="M7,18V19C7,19.552 6.552,20 6,20H5C4.448,20 4,19.552 4,19V18H7Z" id="path_3"/><path fill="#000000ff" d="M20,19V18H17V19C17,19.552 17.448,20 18,20H19C19.552,20 20,19.552 20,19Z" id="path_4"/></svg>