<svg id="vector" xmlns="http://www.w3.org/2000/svg" width="32.0d" height="32.0d" viewBox="0 0 32.0 32.0"><defs><clipPath id="clip_path_0"><path d="M5.896,6h20v19.809h-20z"/></clipPath></defs><path fill="#52159cff" d="M1,16C1,31 1,31 16,31C31,31 31,31 31,16C31,1 31,1 16,1C1,1 1,1 1,16Z" id="path_0"/><g id="g_0"><path fill="#52159cff" d="M6.624,21.821C6.474,21.226 6.685,19.939 6.685,19.939C6.638,19.71 6.524,18.904 6.671,18.809C6.863,18.685 6.985,19.352 6.985,19.352C6.985,19.352 6.893,18.723 7.126,18.732C7.321,18.739 7.274,19.42 7.274,19.42C7.274,19.42 7.33,18.761 7.483,18.77C7.699,18.78 7.584,19.49 7.584,19.49C7.584,19.49 7.876,19.18 7.966,19.308C8.106,19.503 7.596,19.87 7.471,20.003L7.476,21.291C7.476,21.291 8.346,21.941 8.744,22.009C9.003,22.023 9.264,22.022 9.523,22.006C9.538,22.071 9.578,22.128 9.634,22.166L9.688,21.693C9.429,21.566 9.208,21.373 9.048,21.134C8.887,20.895 8.791,20.618 8.77,20.33C8.74,20.35 8.705,20.361 8.669,20.361C8.54,20.361 8.443,20.211 8.451,20.028C8.46,19.844 8.573,19.697 8.703,19.696C8.722,19.696 8.741,19.699 8.759,19.706C8.778,19.515 8.82,19.327 8.883,19.146H8.88C8.895,18.981 8.941,18.821 9.016,18.674L8.991,18.657C8.947,18.728 8.909,18.803 8.878,18.88L8.805,18.852C8.776,18.937 8.757,19.025 8.749,19.114L8.62,19.102C8.65,18.778 8.803,18.478 9.046,18.261C8.854,18.41 8.706,18.609 8.618,18.837L8.498,18.788C8.583,18.56 8.727,18.357 8.914,18.2C9.101,18.043 9.326,17.937 9.566,17.893L9.58,18.006C9.659,17.974 9.742,17.952 9.826,17.938L9.83,17.966C9.951,17.919 10.078,17.884 10.207,17.862L9.99,15.341L11.017,15.961L9.99,15.319L10.679,14.039C10.344,13.185 10.168,12.278 10.159,11.362C10.207,10.548 10.42,8.732 11.027,7.975C11.111,7.865 11.217,7.773 11.338,7.705C11.458,7.637 11.591,7.594 11.729,7.579C11.867,7.563 12.006,7.576 12.139,7.615C12.271,7.655 12.395,7.721 12.501,7.809C12.664,7.661 12.861,7.555 13.075,7.5C13.288,7.446 13.512,7.444 13.726,7.496C13.912,7.54 14.087,7.621 14.24,7.735C14.392,7.849 14.52,7.993 14.615,8.158C14.771,8.342 14.908,8.541 15.021,8.753C15.645,9.894 15.588,11.43 15.203,12.553C15.248,12.525 15.296,12.503 15.347,12.487C15.678,12.418 16.015,12.379 16.353,12.369C16.536,12.38 16.718,12.333 16.873,12.234C16.897,12.309 16.938,12.378 16.993,12.436L17.009,11.844C16.127,11.457 15.557,10.201 15.694,8.788C15.746,8.146 15.96,7.529 16.314,6.992H7.639C7.177,6.993 6.734,7.177 6.407,7.504C6.081,7.83 5.897,8.273 5.896,8.735V24.066C5.897,24.528 6.081,24.971 6.408,25.297C6.734,25.624 7.177,25.808 7.639,25.809H8.305L8.286,23.334C8.286,23.334 6.774,22.417 6.624,21.821Z" fill-opacity="0.611765" clip-path="url(#clip_path_0)"/><path fill="#52159cff" d="M24.153,6.992H19.496C19.706,7.384 19.988,8.25 19.871,8.727C19.859,8.776 19.837,8.822 19.807,8.862C19.817,8.862 19.828,8.862 19.838,8.862C20.032,8.878 20.176,9.127 20.158,9.419C20.14,9.712 19.967,9.934 19.773,9.919C19.719,9.914 19.669,9.893 19.628,9.858C19.475,10.587 19.063,11.237 18.467,11.685L18.551,12.262C18.681,12.177 18.762,12.113 18.762,12.113C18.894,12.22 19.038,12.309 19.192,12.38C19.32,12.411 20.429,12.336 20.88,12.522C21.202,12.657 21.745,13.862 22.179,14.99C22.283,14.987 22.388,14.995 22.49,15.015C22.622,15.039 22.749,15.083 22.868,15.146C23.567,15.411 24.001,16.322 24.02,17.374C24.044,17.889 24.109,18.401 24.213,18.906C24.285,18.917 24.347,18.927 24.392,18.934L25.09,20.18C24.992,20.268 24.802,20.42 24.575,20.587C24.654,20.922 24.736,21.261 24.819,21.599L24.368,21.534C24.628,22.327 24.819,23.091 24.819,23.091L24.749,23.116C24.766,23.229 24.789,23.342 24.819,23.454C24.861,23.587 24.917,23.715 24.985,23.837C25.041,23.921 25.3,24.678 25.198,24.779C25.064,24.913 24.85,24.395 24.85,24.395C24.85,24.395 25.033,24.887 24.844,24.92C24.685,24.948 24.606,24.39 24.606,24.39C24.606,24.39 24.675,24.931 24.55,24.951C24.374,24.979 24.345,24.387 24.345,24.387C24.345,24.387 24.162,24.688 24.066,24.6C23.92,24.466 24.238,24.08 24.316,23.952C24.347,23.883 24.356,23.806 24.342,23.732L24.178,23.316L24.154,23.324L23.326,21.685L23.573,23.419H23.233L23.548,25.809H24.153C24.614,25.808 25.057,25.624 25.384,25.298C25.71,24.971 25.894,24.529 25.895,24.067V8.735C25.894,8.273 25.71,7.831 25.384,7.504C25.057,7.177 24.615,6.993 24.153,6.992Z" fill-opacity="0.611765"/><path fill="#ce6fadff" d="M20.148,23.419L20.204,22.897L20.223,22.724L19.638,22.707L19.549,22.88L19.452,23.069L19.222,23.649C19.208,23.723 19.218,23.8 19.249,23.869C19.328,23.997 19.643,24.383 19.499,24.517C19.403,24.605 19.219,24.304 19.219,24.304C19.219,24.304 19.191,24.895 19.015,24.867C18.889,24.847 18.958,24.306 18.958,24.306C18.958,24.306 18.879,24.865 18.72,24.837C18.532,24.803 18.714,24.312 18.714,24.312C18.714,24.312 18.5,24.829 18.367,24.696C18.264,24.594 18.524,23.838 18.579,23.753C18.647,23.631 18.702,23.503 18.745,23.37C18.778,23.272 18.83,22.953 18.843,22.861L18.847,22.835L18.779,22.808C18.779,22.808 18.794,22.762 18.82,22.684L15.387,22.586L15.41,22.771L15.781,25.808H19.872L20.25,23.418L20.148,23.419Z"/><path fill="#ce6fadff" d="M16.305,18.229C16.038,18.233 15.772,18.195 15.516,18.116C15.482,18.104 15.453,18.081 15.432,18.051C15.382,17.956 15.46,17.886 15.582,17.835C15.769,17.77 15.964,17.729 16.161,17.712C15.981,17.72 15.799,17.705 15.622,17.669C15.477,17.633 15.364,17.567 15.377,17.452C15.388,17.35 15.536,17.313 15.709,17.306C15.899,17.303 16.089,17.317 16.277,17.348C16.093,17.313 15.911,17.264 15.734,17.202C15.578,17.144 15.452,17.071 15.461,16.992C15.481,16.831 15.612,16.795 15.824,16.823C16.018,16.855 16.209,16.899 16.397,16.954C16.254,16.767 16.027,16.534 16.199,16.433C16.4,16.315 16.817,16.761 17.078,17.063C17.877,15.483 17.801,13.838 16.853,13.265C16.255,12.905 15.444,13.05 14.669,13.569C14.558,13.643 14.448,13.724 14.34,13.813C14.308,13.839 14.276,13.866 14.244,13.894C14.201,13.93 14.16,13.968 14.117,14.008C13.743,14.36 13.419,14.763 13.156,15.205C13.002,15.46 12.868,15.727 12.755,16.002C12.652,16.255 12.569,16.515 12.507,16.781C12.409,17.181 12.378,17.595 12.414,18.005L13.08,18.235C13.253,18.111 13.433,17.997 13.62,17.895C13.806,17.799 13.975,17.745 14.055,17.815C14.183,17.928 13.939,18.064 13.777,18.181C14.272,18.173 14.606,18.168 14.577,18.391C14.557,18.551 13.798,18.51 13.798,18.51C13.798,18.51 14.582,18.562 14.554,18.764C14.52,19.003 13.822,18.816 13.822,18.816C13.822,18.816 14.558,19.04 14.38,19.22C14.3,19.3 13.915,19.232 13.563,19.147C13.422,19.113 13.289,19.076 13.18,19.045L12.726,18.948C12.84,19.125 12.992,19.273 13.171,19.382C13.292,19.455 13.423,19.508 13.56,19.54C13.857,19.589 14.162,19.578 14.455,19.509C14.749,19.439 15.026,19.313 15.27,19.136C15.658,18.886 16.007,18.58 16.305,18.229ZM15.069,15.97C15.009,15.93 14.953,15.884 14.902,15.832C14.743,15.668 14.637,15.46 14.599,15.234C14.538,14.873 14.618,14.502 14.824,14.198C14.872,14.127 14.925,14.059 14.984,13.996C14.995,13.985 15.005,13.975 15.016,13.964C15.057,13.923 15.099,13.885 15.144,13.849C15.336,13.684 15.575,13.584 15.827,13.563C16.079,13.542 16.332,13.601 16.548,13.732C16.814,13.936 16.989,14.236 17.035,14.567C17.082,14.899 16.995,15.236 16.795,15.504C16.609,15.79 16.327,16.001 16,16.098C15.845,16.146 15.681,16.16 15.52,16.137C15.359,16.115 15.205,16.058 15.069,15.97Z"/><path fill="#ce6fadff" d="M15.348,15.184C15.281,15.153 15.206,15.146 15.135,15.166C15.064,15.185 15.002,15.229 14.961,15.29C14.951,15.302 14.941,15.315 14.933,15.328C14.931,15.331 14.928,15.334 14.926,15.337C14.89,15.392 14.869,15.456 14.867,15.522C14.865,15.588 14.882,15.653 14.915,15.71C14.934,15.739 14.959,15.764 14.988,15.782L14.976,15.817L14.993,15.785C15.067,15.816 15.151,15.818 15.227,15.791C15.302,15.763 15.365,15.708 15.403,15.637C15.405,15.634 15.407,15.632 15.409,15.629C15.459,15.561 15.48,15.477 15.469,15.394C15.457,15.311 15.414,15.235 15.348,15.184Z"/><path fill="#0091d9ff" d="M20.223,22.724L20.381,21.268L19.638,22.708L20.223,22.724Z"/><path fill="#0091d9ff" d="M22.18,14.99C21.746,13.862 21.202,12.657 20.88,12.522C20.43,12.335 19.321,12.41 19.193,12.379C19.039,12.309 18.894,12.219 18.763,12.113C18.763,12.113 18.682,12.178 18.552,12.262C18.258,12.468 17.917,12.597 17.56,12.638C17.456,12.649 17.351,12.637 17.252,12.603C17.153,12.568 17.063,12.511 16.989,12.437C16.934,12.38 16.893,12.311 16.869,12.235C16.714,12.334 16.532,12.381 16.349,12.371C16.011,12.38 15.674,12.42 15.343,12.488C15.292,12.504 15.244,12.526 15.199,12.555C15.082,12.92 14.903,13.263 14.671,13.569C15.446,13.05 16.258,12.905 16.855,13.265C17.803,13.838 17.879,15.483 17.08,17.063C17.165,17.161 17.233,17.244 17.272,17.288L17.002,18.217C16.77,18.234 16.537,18.238 16.305,18.229C16.007,18.582 15.659,18.888 15.272,19.139L15.069,19.987L15.387,22.588L18.82,22.685C18.986,22.181 19.629,20.29 20.069,19.882C20.228,19.734 20.397,19.597 20.576,19.473L20.886,18.385C20.692,18.006 20.614,17.579 20.662,17.157C20.689,16.863 20.768,16.576 20.894,16.31L20.676,16.242C20.676,16.242 21.133,15.019 22.18,14.99Z"/><path fill="#0091d9ff" d="M11.097,18.126C10.861,18.017 10.602,17.963 10.341,17.969C10.593,17.938 10.848,17.963 11.089,18.043C11.277,18.107 11.453,18.205 11.606,18.333L11.688,18.232C11.505,18.081 11.293,17.968 11.065,17.901C10.785,17.821 10.49,17.807 10.203,17.86C10.074,17.882 9.947,17.917 9.826,17.964L9.822,17.936C9.738,17.949 9.655,17.972 9.576,18.003L9.562,17.891C9.322,17.935 9.097,18.041 8.91,18.198C8.723,18.354 8.579,18.557 8.494,18.786L8.614,18.834C8.702,18.607 8.85,18.408 9.042,18.259C8.799,18.475 8.646,18.776 8.616,19.1L8.745,19.112C8.753,19.022 8.772,18.934 8.801,18.85L8.874,18.878C8.906,18.8 8.943,18.726 8.987,18.655L9.012,18.671C8.937,18.819 8.891,18.979 8.876,19.143H8.879L9.005,19.154C9.023,18.96 9.089,18.774 9.198,18.611C9.306,18.449 9.453,18.316 9.625,18.225L9.668,18.313C9.726,18.287 9.787,18.266 9.85,18.25L9.872,18.362C9.995,18.342 10.121,18.338 10.245,18.351C10.472,18.369 10.692,18.44 10.888,18.556C10.946,18.59 11.002,18.63 11.054,18.673C11.116,18.723 11.174,18.779 11.226,18.839C11.276,18.895 11.321,18.955 11.362,19.017L11.47,18.946C11.392,18.826 11.298,18.716 11.192,18.62C11.155,18.587 11.118,18.557 11.081,18.529C11.05,18.506 11.018,18.484 10.987,18.464C10.759,18.323 10.501,18.239 10.234,18.221C10.154,18.215 10.074,18.214 9.994,18.218C10.073,18.205 10.152,18.196 10.232,18.194C10.422,18.187 10.613,18.215 10.793,18.276C10.898,18.312 10.999,18.358 11.095,18.414C11.178,18.462 11.257,18.518 11.331,18.579L11.404,18.491C11.473,18.557 11.536,18.628 11.592,18.706C11.607,18.727 11.622,18.748 11.636,18.77L11.699,18.729L11.745,18.699C11.587,18.451 11.363,18.253 11.097,18.126Z"/><path fill="#f1ac66ff" d="M19.838,8.861C19.828,8.861 19.818,8.861 19.807,8.861C19.75,8.932 19.673,8.985 19.586,9.014C19.499,9.043 19.406,9.046 19.317,9.024C19.228,9.002 19.148,8.954 19.085,8.888C19.022,8.821 18.979,8.738 18.962,8.649C18.922,8.189 18.907,7.727 18.919,7.266C18.924,7.255 18.926,7.244 18.926,7.232C18.926,7.221 18.923,7.209 18.917,7.199C18.827,7.351 18.681,7.462 18.511,7.51C18.341,7.558 18.159,7.539 18.002,7.457C17.738,7.302 17.446,7.2 17.144,7.156C16.919,7.166 16.696,7.123 16.491,7.03C16.469,7.02 16.448,7.006 16.429,6.991C16.403,6.971 16.381,6.947 16.363,6.919C16.346,6.943 16.329,6.967 16.312,6.991C15.958,7.528 15.745,8.146 15.692,8.787C15.556,10.2 16.125,11.456 17.007,11.843L16.991,12.435C17.065,12.509 17.155,12.566 17.254,12.601C17.353,12.635 17.458,12.647 17.562,12.636C17.919,12.595 18.26,12.465 18.554,12.26L18.469,11.682C19.065,11.234 19.478,10.585 19.631,9.855C19.671,9.89 19.722,9.912 19.776,9.917C19.97,9.932 20.142,9.708 20.16,9.417C20.179,9.126 20.033,8.877 19.838,8.861Z"/><path fill="#f1ac66ff" d="M24.985,23.835C24.917,23.713 24.862,23.585 24.819,23.452C24.79,23.34 24.766,23.228 24.749,23.114L24.178,23.315L24.342,23.728C24.356,23.802 24.347,23.879 24.316,23.948C24.237,24.076 23.921,24.463 24.066,24.596C24.161,24.683 24.344,24.383 24.344,24.383C24.344,24.383 24.373,24.975 24.549,24.947C24.676,24.927 24.606,24.386 24.606,24.386C24.606,24.386 24.685,24.944 24.844,24.916C25.032,24.883 24.85,24.391 24.85,24.391C24.85,24.391 25.064,24.909 25.197,24.775C25.3,24.676 25.04,23.92 24.985,23.835Z"/><path fill="#f1ac66ff" d="M22.387,19.427L22.365,19.029C22.647,18.926 22.896,18.749 23.084,18.515C23.306,18.248 23.466,17.934 23.552,17.597C23.584,17.618 23.622,17.629 23.66,17.628C23.74,17.614 23.813,17.57 23.864,17.506C23.915,17.442 23.941,17.362 23.938,17.28C23.948,17.09 23.84,16.939 23.698,16.942C23.677,16.943 23.656,16.946 23.636,16.953C23.636,16.951 23.636,16.949 23.636,16.947C23.362,16.956 23.088,16.934 22.819,16.88C22.709,16.861 22.601,16.835 22.494,16.803C22.455,16.792 22.559,16.207 22.52,16.196C22.482,16.185 22.307,16.749 22.271,16.739L20.925,16.321L20.895,16.311C20.769,16.578 20.69,16.865 20.663,17.158C20.615,17.581 20.693,18.008 20.887,18.386C20.985,18.573 21.123,18.737 21.291,18.865L21.167,19.344C21.321,19.525 21.596,19.798 21.849,19.778C22.068,19.737 22.261,19.611 22.387,19.427Z"/><path fill="#f1ac66ff" d="M19.222,23.648L19.451,23.069L18.919,22.864L18.847,22.835L18.843,22.861C18.828,22.954 18.777,23.273 18.745,23.371C18.702,23.504 18.646,23.632 18.579,23.754C18.522,23.839 18.264,24.595 18.366,24.697C18.5,24.83 18.713,24.312 18.713,24.312C18.713,24.312 18.531,24.804 18.719,24.838C18.878,24.866 18.958,24.307 18.958,24.307C18.958,24.307 18.889,24.848 19.014,24.868C19.191,24.896 19.219,24.305 19.219,24.305C19.219,24.305 19.403,24.605 19.498,24.517C19.644,24.383 19.327,23.997 19.249,23.869C19.217,23.8 19.208,23.723 19.222,23.648Z"/><path fill="#f1ac66ff" d="M11.409,10.89C11.454,10.896 11.5,10.886 11.541,10.864C11.548,11.208 11.606,11.548 11.711,11.875C11.828,12.268 12.055,12.619 12.367,12.886L12.268,13.84L12.168,13.859L11.839,13.923C11.833,14.089 11.838,14.255 11.853,14.42C11.905,14.966 12.098,15.737 12.757,16.003C12.87,15.727 13.004,15.46 13.158,15.205C13.421,14.763 13.745,14.361 14.12,14.008C14.162,13.969 14.204,13.931 14.247,13.894L13.857,13.84L13.744,12.98C14.378,12.62 14.887,11.746 15.007,10.679C15.045,10.353 15.042,10.023 14.998,9.698C14.509,9.84 13.987,9.819 13.511,9.637C13.303,9.573 13.099,9.493 12.902,9.4C12.645,9.684 12.32,9.897 11.958,10.02C11.767,10.077 11.562,10.076 11.371,10.016C11.371,10.009 11.373,10.002 11.373,9.995C11.264,10.092 11.194,10.227 11.179,10.372C11.142,10.634 11.244,10.867 11.409,10.89Z"/><path fill="#f1ac66ff" d="M16,16.098C16.328,16.001 16.609,15.79 16.795,15.504C16.995,15.236 17.082,14.899 17.036,14.568C16.99,14.236 16.814,13.936 16.548,13.732C16.332,13.601 16.08,13.542 15.827,13.563C15.575,13.584 15.336,13.684 15.145,13.85C15.1,13.885 15.057,13.923 15.016,13.964C15.005,13.975 14.995,13.985 14.984,13.996C14.925,14.059 14.872,14.127 14.824,14.198C14.618,14.502 14.538,14.873 14.599,15.234C14.637,15.46 14.743,15.668 14.902,15.832C14.953,15.884 15.009,15.93 15.069,15.97C15.205,16.058 15.36,16.115 15.521,16.138C15.681,16.16 15.845,16.146 16,16.098ZM15.423,15.648C15.416,15.644 15.41,15.639 15.405,15.634C15.367,15.706 15.304,15.761 15.228,15.788C15.153,15.816 15.069,15.814 14.995,15.783L14.978,15.814L14.99,15.779C14.96,15.761 14.935,15.736 14.917,15.708C14.884,15.651 14.868,15.586 14.87,15.52C14.872,15.455 14.892,15.391 14.928,15.336C14.93,15.333 14.933,15.33 14.935,15.327C14.902,15.274 14.884,15.212 14.885,15.15C14.885,15.087 14.904,15.026 14.938,14.974C14.956,14.943 14.979,14.916 15.005,14.893C15.049,14.848 15.106,14.819 15.167,14.809C15.229,14.8 15.292,14.811 15.347,14.84C15.435,14.893 15.456,15.024 15.495,15.048C15.533,15.071 15.671,15.035 15.758,15.089C15.819,15.139 15.861,15.209 15.874,15.287C15.888,15.365 15.873,15.445 15.832,15.513C15.791,15.581 15.727,15.632 15.652,15.657C15.577,15.681 15.496,15.678 15.423,15.648V15.648Z"/><path fill="#f1ac66ff" d="M11.331,18.58C11.257,18.519 11.178,18.464 11.095,18.415C10.999,18.359 10.898,18.313 10.793,18.278C10.613,18.217 10.422,18.189 10.232,18.196C10.152,18.198 10.073,18.206 9.994,18.22C10.074,18.216 10.154,18.216 10.234,18.223C10.501,18.241 10.759,18.325 10.987,18.466C11.018,18.486 11.05,18.507 11.081,18.531C11.119,18.559 11.156,18.589 11.192,18.622L11.591,18.706C11.535,18.629 11.472,18.557 11.403,18.491L11.331,18.58Z"/><path fill="#f1ac66ff" d="M13.779,18.183C13.942,18.065 14.186,17.928 14.058,17.817C13.978,17.747 13.808,17.801 13.623,17.897C13.436,17.999 13.255,18.113 13.082,18.237L12.417,18.007L11.155,17.571L11.014,15.962L9.987,15.342L10.203,17.863C10.49,17.811 10.785,17.825 11.066,17.904C11.294,17.972 11.506,18.085 11.689,18.236L11.606,18.337C11.453,18.209 11.278,18.111 11.089,18.047C10.848,17.968 10.593,17.942 10.342,17.973C10.602,17.968 10.861,18.021 11.098,18.131C11.363,18.257 11.587,18.455 11.746,18.703L11.7,18.733L12.73,18.953L13.183,19.05C13.292,19.081 13.426,19.118 13.566,19.152C13.919,19.236 14.304,19.305 14.383,19.225C14.56,19.045 13.825,18.821 13.825,18.821C13.825,18.821 14.523,19.008 14.557,18.769C14.585,18.567 13.801,18.515 13.801,18.515C13.801,18.515 14.56,18.556 14.58,18.396C14.608,18.17 14.274,18.175 13.779,18.183Z"/><path fill="#f1ac66ff" d="M16.202,16.433C16.028,16.534 16.255,16.767 16.399,16.955C16.211,16.899 16.02,16.855 15.827,16.823C15.615,16.795 15.483,16.831 15.463,16.992C15.453,17.072 15.58,17.144 15.736,17.202C15.913,17.264 16.095,17.313 16.279,17.348C16.091,17.317 15.901,17.303 15.711,17.306C15.538,17.314 15.39,17.351 15.379,17.452C15.366,17.568 15.48,17.633 15.624,17.669C15.802,17.706 15.983,17.72 16.163,17.712C15.966,17.729 15.772,17.771 15.585,17.835C15.462,17.887 15.384,17.957 15.434,18.051C15.455,18.081 15.484,18.104 15.519,18.117C15.774,18.195 16.04,18.233 16.308,18.229C16.54,18.238 16.772,18.234 17.004,18.216L17.274,17.288C17.236,17.244 17.167,17.161 17.083,17.063C16.818,16.761 16.402,16.316 16.202,16.433Z"/><path fill="#f1ac66ff" d="M7.582,19.489C7.582,19.489 7.697,18.78 7.481,18.769C7.328,18.761 7.272,19.42 7.272,19.42C7.272,19.42 7.32,18.739 7.124,18.732C6.893,18.723 6.984,19.351 6.984,19.351C6.984,19.351 6.861,18.684 6.67,18.808C6.523,18.904 6.636,19.71 6.683,19.938L7.469,20.002C7.594,19.869 8.103,19.503 7.964,19.308C7.874,19.18 7.582,19.489 7.582,19.489Z"/><path fill="#f1ac66ff" d="M11.226,18.841C11.174,18.781 11.116,18.726 11.055,18.675C11.002,18.632 10.947,18.593 10.889,18.558C10.692,18.442 10.472,18.372 10.245,18.353C10.121,18.34 9.996,18.344 9.873,18.364L9.85,18.251C9.787,18.267 9.726,18.288 9.668,18.314L9.625,18.226C9.453,18.317 9.306,18.45 9.198,18.612C9.09,18.774 9.023,18.961 9.005,19.155L8.879,19.144C8.816,19.326 8.774,19.514 8.755,19.705C8.737,19.698 8.718,19.695 8.699,19.695C8.569,19.695 8.457,19.843 8.448,20.026C8.438,20.209 8.536,20.359 8.665,20.36C8.701,20.359 8.736,20.348 8.766,20.329C8.787,20.616 8.883,20.893 9.044,21.132C9.205,21.372 9.425,21.564 9.684,21.692L9.63,22.164C9.747,22.243 9.886,22.28 10.026,22.27C10.11,22.269 10.193,22.254 10.272,22.226C10.306,22.214 10.339,22.2 10.37,22.182L10.427,21.679C10.641,21.575 10.83,21.426 10.983,21.243C11.135,21.059 11.247,20.846 11.31,20.616C11.39,20.373 11.432,20.119 11.435,19.863C11.435,19.812 11.435,19.761 11.432,19.712C11.422,19.411 11.352,19.115 11.226,18.841Z"/><path fill="#f1ac66ff" d="M24.576,20.586C24.801,20.419 24.993,20.266 25.09,20.179L24.392,18.933C24.347,18.927 24.286,18.917 24.214,18.905C23.835,18.833 23.448,18.811 23.063,18.839C22.988,18.84 22.914,18.858 22.847,18.894C22.781,18.929 22.724,18.98 22.682,19.042C22.612,19.193 22.746,19.268 22.933,19.32C23.06,19.355 23.212,19.38 23.342,19.408C23.253,19.445 23.168,19.482 23.086,19.517C22.935,19.582 22.799,19.643 22.681,19.703C22.586,19.75 22.496,19.805 22.41,19.868C22.36,19.904 22.317,19.949 22.283,20C22.258,20.037 22.245,20.081 22.246,20.126C22.246,20.17 22.26,20.214 22.285,20.251C22.309,20.29 22.362,20.305 22.434,20.304C22.816,20.227 23.185,20.095 23.529,19.912C23.529,19.912 22.392,20.51 22.569,20.793C22.778,21.128 23.696,20.385 23.696,20.385C23.696,20.385 22.771,21.188 23.115,21.351C23.119,21.353 23.123,21.356 23.128,21.358C23.154,21.366 23.182,21.369 23.209,21.365C23.547,21.265 23.862,21.104 24.141,20.89C24.292,20.792 24.44,20.686 24.576,20.586Z"/><path fill="#f53960ff" d="M24.368,21.533C24.297,21.316 24.221,21.097 24.142,20.891C23.864,21.105 23.548,21.266 23.211,21.366C23.183,21.37 23.155,21.367 23.129,21.359C23.124,21.357 23.12,21.354 23.116,21.352C22.771,21.189 23.697,20.386 23.697,20.386C23.697,20.386 22.778,21.129 22.57,20.794C22.393,20.512 23.53,19.913 23.53,19.913C23.186,20.096 22.817,20.228 22.435,20.305C22.364,20.305 22.31,20.291 22.286,20.252C22.261,20.215 22.247,20.171 22.247,20.127C22.247,20.082 22.26,20.038 22.285,20.001C22.319,19.95 22.362,19.905 22.411,19.869C22.497,19.806 22.588,19.751 22.683,19.704C22.8,19.644 22.936,19.583 23.088,19.518C23.016,19.479 22.949,19.447 22.886,19.419C22.759,19.36 22.627,19.312 22.492,19.274C22.46,19.327 22.425,19.378 22.387,19.426C22.324,19.517 22.245,19.595 22.152,19.655C22.06,19.715 21.957,19.756 21.848,19.777C21.595,19.796 21.32,19.523 21.167,19.343C21.092,19.255 21.046,19.188 21.046,19.188C20.882,19.271 20.725,19.366 20.575,19.472C20.397,19.596 20.227,19.733 20.068,19.881C19.629,20.291 18.986,22.18 18.82,22.684C18.794,22.763 18.779,22.809 18.779,22.809L18.92,22.864L19.452,23.069L19.549,22.88L19.638,22.707L20.381,21.267L20.223,22.724L20.205,22.897L20.148,23.419H23.574L23.326,21.685L24.155,23.324L24.178,23.316L24.749,23.114L24.819,23.09C24.819,23.09 24.627,22.326 24.368,21.533Z"/><path fill="#f53960ff" d="M14.613,8.159C14.518,7.994 14.39,7.849 14.237,7.736C14.084,7.622 13.91,7.54 13.724,7.497C13.51,7.445 13.286,7.446 13.073,7.501C12.859,7.556 12.662,7.662 12.499,7.81C12.392,7.722 12.269,7.656 12.136,7.616C12.004,7.576 11.864,7.564 11.727,7.58C11.589,7.595 11.456,7.638 11.335,7.706C11.215,7.774 11.109,7.866 11.025,7.976C10.417,8.733 10.204,10.549 10.156,11.363C10.166,12.279 10.342,13.186 10.676,14.04L11.845,13.842C11.845,13.842 11.842,13.873 11.84,13.927L12.169,13.863L12.269,13.843L12.368,12.889C12.057,12.623 11.829,12.272 11.713,11.878C11.607,11.552 11.549,11.211 11.542,10.868C11.502,10.89 11.456,10.899 11.41,10.894C11.245,10.87 11.143,10.638 11.181,10.375C11.196,10.23 11.266,10.095 11.375,9.999C11.375,10.006 11.374,10.012 11.373,10.019C11.564,10.079 11.769,10.08 11.96,10.023C12.322,9.9 12.647,9.687 12.904,9.404C13.101,9.497 13.305,9.576 13.513,9.641C13.989,9.822 14.511,9.843 15,9.701C15.043,10.026 15.046,10.356 15.009,10.682C14.889,11.749 14.379,12.623 13.746,12.983L13.859,13.843L14.248,13.897C14.28,13.868 14.312,13.843 14.344,13.816C14.452,13.728 14.562,13.646 14.672,13.572C14.904,13.266 15.083,12.923 15.2,12.558C15.586,11.435 15.643,9.898 15.019,8.758C14.906,8.544 14.769,8.343 14.613,8.159Z"/><path fill="#f53960ff" d="M11.122,22.02C10.953,22.001 10.751,21.992 10.536,21.99C10.536,21.99 10.536,21.992 10.536,21.993C10.536,22.055 10.472,22.128 10.371,22.184C10.34,22.201 10.307,22.216 10.273,22.228C10.194,22.256 10.111,22.271 10.028,22.272C9.887,22.282 9.748,22.244 9.631,22.166C9.575,22.129 9.536,22.071 9.52,22.006C9.261,22.022 9.001,22.023 8.741,22.009C8.344,21.941 7.473,21.291 7.473,21.291L7.468,20.003L6.683,19.939C6.683,19.939 6.472,21.226 6.622,21.822C6.773,22.417 8.285,23.334 8.285,23.334L8.304,25.809H11.523L11.415,24.062L12.116,25.809H12.933C12.933,25.809 12.322,22.157 11.122,22.02Z"/><path fill="#00245bff" d="M19.496,6.992C19.47,6.942 19.44,6.895 19.407,6.85C19.282,6.622 19.104,6.428 18.887,6.286C18.523,6.101 18.12,6.003 17.712,6.001C17.472,6.017 17.236,6.062 17.007,6.134C16.8,6.167 16.61,6.271 16.472,6.429C16.403,6.488 16.355,6.568 16.336,6.657C16.316,6.746 16.327,6.839 16.365,6.922C16.383,6.949 16.405,6.974 16.431,6.994C16.45,7.009 16.471,7.022 16.493,7.033C16.697,7.125 16.921,7.168 17.146,7.158C17.448,7.203 17.74,7.305 18.004,7.459C18.16,7.541 18.343,7.56 18.513,7.513C18.683,7.465 18.829,7.353 18.919,7.201C18.924,7.211 18.927,7.223 18.927,7.234C18.928,7.246 18.926,7.257 18.921,7.268C18.909,7.729 18.924,8.191 18.964,8.651C18.981,8.741 19.024,8.824 19.087,8.89C19.149,8.957 19.23,9.004 19.319,9.026C19.407,9.049 19.501,9.045 19.588,9.016C19.674,8.987 19.751,8.934 19.809,8.863C19.839,8.823 19.861,8.777 19.873,8.728C19.988,8.25 19.706,7.384 19.496,6.992Z"/><path fill="#00245bff" d="M11.523,25.809H12.117L11.415,24.062L11.523,25.809Z"/><path fill="#00245bff" d="M15.387,22.588L15.069,19.986L15.272,19.138C15.028,19.315 14.751,19.442 14.457,19.511C14.164,19.58 13.859,19.591 13.562,19.542C13.425,19.51 13.294,19.457 13.173,19.385C12.994,19.275 12.842,19.127 12.729,18.95L11.699,18.73L11.636,18.771C11.622,18.75 11.608,18.728 11.592,18.708L11.192,18.623C11.299,18.719 11.392,18.829 11.47,18.949L11.362,19.02C11.321,18.958 11.276,18.898 11.226,18.842C11.353,19.116 11.424,19.413 11.435,19.714C11.437,19.764 11.438,19.815 11.438,19.866C11.435,20.122 11.393,20.375 11.313,20.618C11.25,20.848 11.138,21.062 10.985,21.245C10.833,21.428 10.643,21.577 10.429,21.681L10.373,22.185C10.474,22.128 10.538,22.056 10.538,21.994C10.538,21.994 10.538,21.992 10.538,21.99C10.753,21.993 10.955,22.002 11.123,22.021C12.324,22.158 12.934,25.81 12.934,25.81H15.783L15.412,22.773L15.387,22.588Z"/><path fill="#00245bff" d="M24.576,20.586C24.44,20.686 24.292,20.791 24.142,20.891C24.221,21.097 24.297,21.316 24.368,21.533L24.819,21.598C24.736,21.26 24.654,20.921 24.576,20.586Z"/><path fill="#00245bff" d="M21.167,19.343L21.29,18.864C21.122,18.735 20.984,18.572 20.886,18.385L20.576,19.473C20.726,19.366 20.883,19.271 21.047,19.189C21.047,19.189 21.092,19.255 21.167,19.343Z"/><path fill="#00245bff" d="M20.925,16.319L22.27,16.736C22.306,16.747 22.483,16.183 22.52,16.194C22.556,16.205 22.454,16.79 22.493,16.801C22.6,16.833 22.709,16.858 22.819,16.878C23.087,16.932 23.362,16.954 23.636,16.945C23.636,16.947 23.636,16.949 23.636,16.951C23.655,16.944 23.676,16.94 23.697,16.94C23.84,16.938 23.947,17.089 23.937,17.278C23.941,17.36 23.914,17.44 23.863,17.504C23.812,17.568 23.74,17.611 23.659,17.626C23.621,17.626 23.584,17.616 23.552,17.594C23.466,17.932 23.306,18.245 23.084,18.513C22.896,18.747 22.647,18.924 22.365,19.027L22.386,19.425C22.425,19.376 22.46,19.326 22.491,19.273C22.627,19.31 22.758,19.359 22.886,19.418C22.949,19.446 23.016,19.478 23.087,19.516C23.168,19.481 23.254,19.445 23.343,19.408C23.213,19.379 23.061,19.355 22.934,19.32C22.747,19.268 22.613,19.193 22.683,19.042C22.725,18.98 22.782,18.929 22.848,18.894C22.914,18.858 22.988,18.84 23.064,18.839C23.448,18.81 23.836,18.833 24.215,18.905C24.11,18.4 24.045,17.888 24.021,17.372C24.002,16.321 23.568,15.41 22.869,15.144C22.75,15.082 22.623,15.038 22.492,15.014C22.389,14.994 22.285,14.986 22.18,14.989C21.133,15.017 20.677,16.24 20.677,16.24L20.895,16.308L20.925,16.319Z"/><path fill="#00245bff" d="M11.155,17.569L12.417,18.006C12.381,17.596 12.412,17.182 12.51,16.782C12.571,16.516 12.655,16.256 12.758,16.003C12.098,15.738 11.905,14.967 11.854,14.421C11.838,14.256 11.833,14.09 11.839,13.924C11.841,13.871 11.844,13.839 11.844,13.839L10.675,14.037L9.987,15.317L11.014,15.958L11.155,17.569Z"/><path fill="#00245bff" d="M15.757,15.09C15.67,15.037 15.532,15.074 15.493,15.049C15.455,15.025 15.434,14.895 15.346,14.842C15.291,14.812 15.228,14.802 15.166,14.811C15.104,14.82 15.048,14.85 15.004,14.894C14.978,14.918 14.955,14.945 14.936,14.975C14.903,15.028 14.884,15.089 14.884,15.151C14.883,15.214 14.901,15.275 14.934,15.328C14.942,15.315 14.952,15.302 14.962,15.29C15.003,15.23 15.065,15.186 15.136,15.166C15.207,15.147 15.282,15.153 15.348,15.184C15.415,15.236 15.458,15.311 15.469,15.394C15.481,15.476 15.46,15.561 15.41,15.628C15.408,15.631 15.406,15.634 15.404,15.636C15.41,15.641 15.416,15.646 15.422,15.65C15.496,15.68 15.577,15.683 15.652,15.658C15.727,15.634 15.791,15.583 15.832,15.515C15.872,15.447 15.887,15.367 15.874,15.289C15.86,15.211 15.819,15.14 15.758,15.09H15.757Z"/><path fill="#00245bff" d="M20.853,23.419H20.25L19.873,25.809H23.549L23.233,23.419H20.853Z"/><path fill="#00245bff" d="M16.958,9.737L16.152,9.601L17.128,8.187L17.184,8.226L16.269,9.55L16.969,9.669L16.958,9.737Z"/><path fill="#00245bff" d="M17.258,10.501C17.023,10.507 16.791,10.454 16.581,10.347L16.614,10.286C16.813,10.387 17.034,10.437 17.258,10.432C17.581,10.425 17.9,10.358 18.2,10.235L18.218,10.265L18.227,10.299C17.919,10.425 17.59,10.494 17.258,10.501Z"/><path fill="#00245bff" d="M17.769,8.797H17.759C17.725,8.795 17.691,8.782 17.664,8.759C17.651,8.748 17.64,8.733 17.633,8.717C17.626,8.7 17.622,8.683 17.623,8.665C17.627,8.631 17.645,8.599 17.671,8.578C17.698,8.556 17.732,8.545 17.767,8.547C17.788,8.547 17.81,8.551 17.83,8.56C17.85,8.569 17.868,8.582 17.883,8.597C17.893,8.609 17.901,8.622 17.906,8.636C17.91,8.65 17.912,8.665 17.911,8.68C17.907,8.714 17.889,8.745 17.863,8.766C17.836,8.788 17.803,8.799 17.769,8.797ZM17.765,8.615C17.749,8.613 17.732,8.618 17.719,8.628C17.705,8.637 17.695,8.652 17.692,8.668C17.692,8.675 17.694,8.683 17.697,8.689C17.7,8.696 17.704,8.702 17.71,8.706C17.725,8.719 17.744,8.726 17.764,8.727L17.769,8.762V8.727C17.808,8.727 17.842,8.703 17.843,8.675C17.844,8.669 17.843,8.663 17.841,8.657C17.839,8.651 17.836,8.646 17.831,8.642C17.823,8.633 17.813,8.626 17.801,8.621C17.79,8.617 17.778,8.614 17.765,8.614V8.615Z"/><path fill="#00245bff" d="M16.371,8.615H16.361C16.321,8.613 16.282,8.595 16.255,8.566C16.244,8.555 16.236,8.541 16.231,8.527C16.226,8.512 16.223,8.497 16.224,8.481C16.229,8.447 16.246,8.416 16.273,8.394C16.299,8.372 16.333,8.361 16.368,8.364C16.411,8.364 16.453,8.382 16.483,8.413C16.494,8.424 16.502,8.437 16.507,8.451C16.512,8.465 16.514,8.48 16.514,8.495C16.51,8.529 16.492,8.561 16.466,8.583C16.439,8.605 16.405,8.616 16.371,8.615ZM16.366,8.433C16.35,8.432 16.333,8.436 16.32,8.446C16.307,8.456 16.297,8.47 16.294,8.486C16.294,8.492 16.295,8.498 16.297,8.504C16.299,8.51 16.302,8.515 16.306,8.519C16.322,8.535 16.343,8.544 16.365,8.545L16.371,8.58V8.545C16.388,8.547 16.404,8.543 16.418,8.533C16.432,8.523 16.441,8.508 16.445,8.492C16.445,8.48 16.441,8.468 16.432,8.46C16.415,8.443 16.391,8.433 16.366,8.433Z"/><path fill="#00245bff" d="M21.643,18.117C21.482,18.117 21.208,18.103 21.176,18.019C21.148,17.944 21.354,17.616 21.534,17.355L21.59,17.394C21.449,17.58 21.332,17.783 21.241,17.997C21.37,18.039 21.507,18.056 21.643,18.048L21.643,18.117Z"/><path fill="#00245bff" d="M21.773,18.614C21.649,18.612 21.527,18.583 21.416,18.528L21.446,18.465C21.617,18.545 21.811,18.557 21.991,18.501C22.171,18.445 22.324,18.324 22.42,18.162L22.479,18.198C22.402,18.317 22.297,18.417 22.175,18.489C22.052,18.561 21.915,18.604 21.773,18.614Z"/><path fill="#00245bff" d="M21.222,17.167C21.217,17.167 21.211,17.167 21.206,17.167C21.176,17.163 21.149,17.148 21.13,17.125C21.111,17.101 21.102,17.071 21.105,17.042C21.108,17.012 21.124,16.984 21.147,16.965C21.17,16.947 21.2,16.938 21.23,16.941C21.247,16.943 21.264,16.948 21.279,16.955C21.295,16.963 21.308,16.974 21.319,16.988C21.328,16.999 21.335,17.011 21.339,17.025C21.343,17.039 21.344,17.053 21.343,17.068C21.338,17.096 21.324,17.122 21.302,17.14C21.279,17.159 21.251,17.168 21.222,17.167ZM21.222,17.009C21.187,17.009 21.166,17.025 21.163,17.047C21.163,17.06 21.169,17.073 21.178,17.082C21.188,17.092 21.201,17.097 21.215,17.097H21.223C21.235,17.098 21.247,17.095 21.256,17.088C21.266,17.081 21.272,17.07 21.275,17.059C21.275,17.054 21.275,17.049 21.273,17.044C21.272,17.039 21.269,17.035 21.266,17.031C21.255,17.018 21.24,17.011 21.224,17.01L21.222,17.009Z"/><path fill="#00245bff" d="M22.183,17.335H22.169C22.148,17.33 22.129,17.32 22.113,17.305C22.098,17.29 22.087,17.271 22.083,17.25C22.078,17.229 22.08,17.207 22.087,17.187C22.095,17.167 22.108,17.149 22.125,17.136C22.143,17.124 22.163,17.116 22.185,17.115C22.206,17.114 22.228,17.119 22.246,17.129C22.265,17.14 22.28,17.156 22.29,17.175C22.3,17.194 22.304,17.216 22.302,17.237C22.297,17.265 22.283,17.291 22.261,17.309C22.239,17.327 22.211,17.336 22.183,17.335ZM22.183,17.183C22.15,17.183 22.129,17.198 22.126,17.219C22.124,17.239 22.146,17.262 22.175,17.265H22.182C22.193,17.267 22.204,17.264 22.214,17.257C22.223,17.25 22.229,17.24 22.232,17.229C22.234,17.207 22.212,17.186 22.183,17.183H22.183Z"/><path fill="#0091d9ff" d="M22.248,17.67C22.249,17.676 22.248,17.681 22.246,17.686C22.245,17.691 22.242,17.696 22.239,17.7C22.235,17.704 22.231,17.708 22.226,17.71C22.221,17.713 22.216,17.714 22.21,17.714C22.199,17.715 22.189,17.712 22.18,17.704C22.172,17.697 22.167,17.687 22.166,17.676C22.165,17.671 22.166,17.665 22.167,17.659C22.168,17.654 22.171,17.649 22.174,17.644C22.178,17.64 22.182,17.636 22.187,17.633C22.192,17.631 22.198,17.629 22.204,17.628C22.209,17.628 22.215,17.629 22.221,17.631C22.226,17.633 22.231,17.636 22.235,17.64C22.239,17.643 22.242,17.648 22.245,17.653C22.247,17.659 22.248,17.664 22.248,17.67Z"/><path fill="#0091d9ff" d="M22.098,17.799C22.098,17.81 22.095,17.821 22.088,17.829C22.08,17.837 22.07,17.842 22.06,17.843C22.049,17.843 22.038,17.84 22.03,17.833C22.022,17.826 22.017,17.816 22.015,17.806C22.015,17.8 22.015,17.795 22.017,17.789C22.019,17.784 22.021,17.779 22.025,17.775C22.028,17.77 22.033,17.767 22.038,17.764C22.043,17.762 22.048,17.76 22.054,17.76C22.059,17.76 22.065,17.76 22.07,17.762C22.075,17.764 22.08,17.767 22.084,17.77C22.088,17.774 22.092,17.778 22.094,17.784C22.097,17.788 22.098,17.794 22.098,17.799Z"/><path fill="#0091d9ff" d="M21.931,17.608C21.931,17.619 21.927,17.629 21.92,17.637C21.913,17.645 21.903,17.65 21.892,17.651C21.887,17.652 21.882,17.651 21.876,17.649C21.871,17.648 21.867,17.645 21.862,17.642C21.858,17.638 21.855,17.634 21.852,17.629C21.85,17.624 21.848,17.619 21.848,17.614C21.848,17.608 21.848,17.603 21.85,17.598C21.851,17.592 21.854,17.588 21.858,17.583C21.861,17.579 21.865,17.576 21.87,17.573C21.875,17.571 21.881,17.569 21.886,17.569C21.897,17.568 21.908,17.572 21.916,17.579C21.924,17.587 21.93,17.597 21.931,17.608Z"/><path fill="#0091d9ff" d="M21.111,17.636C21.1,17.634 21.09,17.628 21.084,17.619C21.078,17.61 21.075,17.599 21.077,17.588C21.079,17.578 21.085,17.568 21.094,17.562C21.103,17.556 21.114,17.553 21.125,17.555C21.135,17.557 21.145,17.563 21.151,17.572C21.157,17.58 21.16,17.591 21.158,17.602C21.157,17.613 21.15,17.623 21.142,17.629C21.132,17.635 21.121,17.638 21.111,17.636Z"/><path fill="#0091d9ff" d="M21.061,17.414C21.05,17.412 21.041,17.405 21.034,17.396C21.028,17.388 21.026,17.376 21.027,17.366C21.029,17.355 21.035,17.345 21.044,17.339C21.053,17.333 21.064,17.33 21.075,17.332C21.086,17.334 21.095,17.34 21.102,17.349C21.108,17.358 21.11,17.369 21.109,17.38C21.107,17.39 21.101,17.4 21.092,17.406C21.083,17.413 21.072,17.415 21.061,17.414Z"/><path fill="#00245bff" d="M12.774,10.534C12.747,10.535 12.72,10.526 12.699,10.507C12.679,10.489 12.666,10.464 12.664,10.436C12.663,10.424 12.665,10.411 12.669,10.399C12.674,10.387 12.68,10.375 12.689,10.366C12.7,10.354 12.712,10.345 12.727,10.339C12.741,10.332 12.756,10.329 12.772,10.328C12.786,10.327 12.8,10.328 12.814,10.332C12.828,10.336 12.84,10.343 12.851,10.352C12.862,10.361 12.871,10.372 12.877,10.385C12.883,10.398 12.887,10.412 12.888,10.426C12.888,10.44 12.886,10.454 12.881,10.467C12.876,10.481 12.868,10.493 12.858,10.503C12.848,10.513 12.837,10.521 12.823,10.526C12.81,10.532 12.796,10.534 12.782,10.534L12.774,10.534ZM12.778,10.398C12.771,10.397 12.764,10.399 12.758,10.401C12.752,10.404 12.746,10.408 12.741,10.412C12.738,10.415 12.736,10.418 12.735,10.422C12.733,10.425 12.733,10.429 12.733,10.433C12.735,10.443 12.74,10.451 12.748,10.457C12.755,10.463 12.765,10.466 12.775,10.465V10.5L12.778,10.465C12.802,10.463 12.822,10.447 12.821,10.43C12.819,10.42 12.814,10.411 12.806,10.405C12.797,10.399 12.787,10.396 12.777,10.398H12.778Z"/><path fill="#00245bff" d="M14.171,10.465C14.157,10.467 14.142,10.465 14.129,10.461C14.116,10.456 14.103,10.449 14.093,10.439C14.082,10.43 14.074,10.418 14.068,10.406C14.062,10.393 14.059,10.379 14.058,10.365C14.058,10.35 14.061,10.336 14.066,10.323C14.072,10.31 14.08,10.298 14.09,10.288C14.1,10.279 14.112,10.271 14.125,10.266C14.139,10.261 14.153,10.259 14.167,10.26C14.196,10.257 14.224,10.266 14.246,10.284C14.268,10.302 14.283,10.328 14.286,10.356C14.287,10.369 14.285,10.382 14.28,10.394C14.276,10.406 14.269,10.417 14.261,10.427C14.24,10.45 14.21,10.464 14.178,10.465H14.171ZM14.174,10.329C14.145,10.33 14.128,10.346 14.128,10.365C14.13,10.375 14.136,10.383 14.143,10.389C14.151,10.395 14.161,10.398 14.171,10.396V10.431L14.174,10.396C14.188,10.396 14.2,10.39 14.21,10.381C14.215,10.375 14.217,10.368 14.217,10.361C14.215,10.351 14.21,10.342 14.202,10.336C14.193,10.33 14.184,10.328 14.174,10.329Z"/><path fill="#00245bff" d="M13.814,11.695H13.31V11.625H13.728L13.427,10.288L13.494,10.272L13.814,11.695Z"/><path fill="#00245bff" d="M13.373,12.583C13.115,12.57 12.87,12.47 12.677,12.297L12.725,12.248C12.878,12.401 13.082,12.492 13.298,12.504C13.514,12.515 13.727,12.447 13.895,12.311L13.939,12.364C13.783,12.502 13.582,12.58 13.373,12.583Z"/><path fill="#00245bff" d="M15.498,14.399C15.489,14.413 15.477,14.424 15.463,14.431C15.448,14.438 15.432,14.44 15.416,14.437C15.401,14.434 15.386,14.427 15.374,14.416C15.363,14.405 15.355,14.391 15.352,14.375C15.349,14.359 15.35,14.343 15.356,14.328C15.363,14.313 15.373,14.301 15.387,14.292C15.4,14.284 15.416,14.279 15.432,14.28C15.448,14.28 15.464,14.286 15.476,14.295C15.493,14.306 15.504,14.323 15.508,14.343C15.512,14.362 15.509,14.382 15.498,14.399Z"/><path fill="#00245bff" d="M16.116,14.916C16.104,14.929 16.087,14.938 16.07,14.939C16.052,14.941 16.034,14.935 16.02,14.923C16.006,14.913 15.996,14.897 15.993,14.88C15.989,14.862 15.993,14.844 16.003,14.829C16.015,14.817 16.031,14.81 16.049,14.809C16.066,14.808 16.083,14.813 16.097,14.823C16.11,14.834 16.12,14.849 16.123,14.866C16.127,14.883 16.124,14.901 16.116,14.916Z"/><path fill="#00245bff" d="M9.668,19.546C9.642,19.547 9.617,19.539 9.597,19.523C9.576,19.507 9.563,19.484 9.558,19.459C9.556,19.43 9.565,19.402 9.582,19.379C9.6,19.357 9.626,19.341 9.654,19.337C9.683,19.332 9.712,19.338 9.736,19.353C9.76,19.368 9.778,19.392 9.786,19.42C9.789,19.449 9.781,19.478 9.763,19.501C9.745,19.524 9.719,19.539 9.69,19.544C9.683,19.545 9.675,19.546 9.668,19.546ZM9.675,19.405H9.665C9.66,19.404 9.654,19.405 9.649,19.407C9.643,19.41 9.639,19.413 9.635,19.417C9.631,19.421 9.628,19.426 9.627,19.432C9.625,19.437 9.625,19.443 9.626,19.448C9.627,19.454 9.629,19.459 9.632,19.464C9.636,19.469 9.64,19.472 9.645,19.475C9.65,19.478 9.656,19.479 9.661,19.479C9.667,19.479 9.672,19.478 9.678,19.476C9.689,19.475 9.699,19.47 9.706,19.462C9.714,19.454 9.718,19.443 9.718,19.432C9.715,19.423 9.709,19.416 9.701,19.411C9.693,19.406 9.684,19.403 9.675,19.404V19.405Z"/><path fill="#00245bff" d="M10.5,19.43C10.476,19.431 10.453,19.423 10.435,19.409C10.416,19.394 10.403,19.374 10.398,19.351C10.396,19.339 10.396,19.326 10.399,19.314C10.402,19.302 10.407,19.291 10.414,19.28C10.423,19.268 10.434,19.258 10.447,19.25C10.46,19.243 10.474,19.238 10.488,19.236C10.495,19.234 10.502,19.233 10.509,19.233C10.533,19.232 10.557,19.24 10.575,19.254C10.594,19.269 10.607,19.29 10.611,19.313C10.614,19.341 10.606,19.368 10.589,19.389C10.572,19.411 10.547,19.425 10.52,19.428C10.513,19.43 10.507,19.43 10.5,19.43ZM10.509,19.303C10.506,19.302 10.503,19.302 10.5,19.303C10.489,19.305 10.479,19.311 10.472,19.32C10.47,19.322 10.469,19.325 10.468,19.328C10.467,19.331 10.467,19.334 10.467,19.337C10.47,19.346 10.476,19.353 10.484,19.357C10.492,19.361 10.501,19.362 10.51,19.36C10.532,19.356 10.547,19.34 10.544,19.323C10.542,19.316 10.537,19.31 10.531,19.306C10.524,19.303 10.517,19.301 10.509,19.302V19.303Z"/><path fill="#00245bff" d="M10.272,20.274L10.271,20.205L10.472,20.2L10.175,19.558L10.237,19.53L10.58,20.268L10.272,20.274Z"/><path fill="#00245bff" d="M10.145,21.111C9.997,21.1 9.855,21.048 9.736,20.961C9.616,20.874 9.524,20.755 9.469,20.617L9.533,20.592C9.591,20.749 9.704,20.879 9.852,20.957C9.999,21.035 10.17,21.056 10.332,21.015L10.35,21.082C10.283,21.1 10.214,21.11 10.145,21.111Z"/></g></svg>